# xmcd CD database file
#
# Track frame offsets:
#	150
#	6076
#	17703
#	20542
#	24784
#	27672
#	30282
#	34082
#	38750
#	47830
#	62104
#	69880
#	77642
#	86477
#	90599
#	94765
#	99116
#	107128
#	110820
#	115581
#	124130
#	133287
#	141395
#	147349
#	162425
#	165712
#	175417
#	182423
#	188135
#	196161
#	199579
#	209903
#	223418
#	230480
#	240285
#	247453
#	252817
#	267511
#	273341
#	282020
#	286856
#	303190
#	310427
#	317634
#	331673
#	334501
#
# Disc length: 4625 seconds
#
# Revision: 1
# Processed by: cddbd v1.5.2PL0 Copyright (c) Steve Scherf et al.
# Submitted via: CDex 1.70beta2
#
DISCID=90120f2e
DTITLE=Tim Richards - Exploring Jazz Piano Vol.2
DYEAR=1900
DGENRE=Jazz
TTITLE0=Reflections
TTITLE1=Eleventh Hour
TTITLE2=Hot and Cold
TTITLE3=Hot and Cold - Montuno
TTITLE4=Impressions (John Coltrane)
TTITLE5=Quartal Comping
TTITLE6=First Impression
TTITLE7=Dustbiter
TTITLE8=The Message
TTITLE9=Thirteenth Groove
TTITLE10=Short II-V Workout
TTITLE11=II-V Comping
TTITLE12=Ladybird (Tadd Dameron)
TTITLE13=Swinging Comping 1
TTITLE14=Swinging Comping 2
TTITLE15=Dominant Seventh Workout 2
TTITLE16=Bossa Nova Comping 2
TTITLE17=Dominant Bebop Scale Workout
TTITLE18=Bebop Bridge
TTITLE19=Misty (Erroll Garner)
TTITLE20=Tournarount Workout 1 (E flat)
TTITLE21=Crossing the Tracks
TTITLE22=Don't Stop the Carnival (Traditional)
TTITLE23=Summertime (George Gershwin)
TTITLE24=Dominant Seventh Flat Nine Workout
TTITLE25=Turnaround Workout 2 (C)
TTITLE26=Caravan (Duke Ellington and Juan Tizol)
TTITLE27=Diminished Scale Workout
TTITLE28=Tension and Release Blues 1 (F)
TTITLE29=Bird Blues Comping
TTITLE30=Blues Turnaround Workout
TTITLE31=Blues in Green (Bill Evans and Miles Davies)
TTITLE32=Tension and Release Blues 2 (B flat)
TTITLE33=Tune up (Miles Davies)
TTITLE34=Rhythm Changes Comping 1
TTITLE35=Rhythm Changes Comping 2
TTITLE36=Seventh Heaven
TTITLE37=On Green Dolphin Street (Bronislau Kaper)
TTITLE38=Blue Bossa (Kenny Dorham)
TTITLE39=Yesterdays (Jerome Kern)
TTITLE40=Softly as in a Morning Sunrise (Sigmund Romberg)
TTITLE41=Minor Turnaround Workout - Comping
TTITLE42=Minor Turnaround Workout - Improvisation
TTITLE43=Beautiful Love (Victor Young)
TTITLE44=Blues in Fourth
TTITLE45=Twelve by Three
EXTD=
EXTT0=
EXTT1=
EXTT2=
EXTT3=
EXTT4=
EXTT5=
EXTT6=
EXTT7=
EXTT8=
EXTT9=
EXTT10=
EXTT11=
EXTT12=
EXTT13=
EXTT14=
EXTT15=
EXTT16=
EXTT17=
EXTT18=
EXTT19=
EXTT20=
EXTT21=
EXTT22=
EXTT23=
EXTT24=
EXTT25=
EXTT26=
EXTT27=
EXTT28=
EXTT29=
EXTT30=
EXTT31=
EXTT32=
EXTT33=
EXTT34=
EXTT35=
EXTT36=
EXTT37=
EXTT38=
EXTT39=
EXTT40=
EXTT41=
EXTT42=
EXTT43=
EXTT44=
EXTT45=
PLAYORDER=
